<?xml version="1.0" encoding="UTF-8"?>
<svg id="_레이어_2" data-name="레이어 2" xmlns="http://www.w3.org/2000/svg" viewBox="0 0 849.89 795.58">
  <defs>
    <style>
      .cls-1 {
        fill: #f9f9fa;
      }

      .cls-2 {
        fill: #5d05ce;
      }

      .cls-3, .cls-4 {
        fill: #d5ff72;
      }

      .cls-3, .cls-5 {
        stroke: #5d05ce;
        stroke-linecap: round;
        stroke-miterlimit: 10;
        stroke-width: 24px;
      }

      .cls-5 {
        fill: none;
      }
    </style>
  </defs>
  <g id="_레이어_1-2" data-name="레이어 1">
    <g>
      <path class="cls-4" d="M401.77,684.83c-110.5,0-203.44-24.38-268.78-70.52-34.71-24.51-61.55-55.14-79.78-91.04-19.47-38.35-29.34-83.23-29.34-133.37s9.99-100.51,29.69-147.09c19.03-45,46.28-85.41,80.99-120.12,34.71-34.71,75.12-61.96,120.12-80.99,46.58-19.7,96.07-29.69,147.09-29.69s100.51,9.99,147.09,29.69c45,19.03,85.41,46.28,120.12,80.99,34.71,34.71,61.96,75.12,80.99,120.12,19.7,46.58,29.69,96.07,29.69,147.09s-9.87,95.02-29.34,133.37c-18.22,35.9-45.07,66.53-79.78,91.04-65.34,46.13-158.28,70.52-268.78,70.52Z"/>
      <path class="cls-2" d="M401.77,24c49.41,0,97.32,9.67,142.42,28.74,43.57,18.43,82.7,44.81,116.31,78.42s60,72.74,78.42,116.31c19.07,45.09,28.74,93.01,28.74,142.42,0,93.66-35,165.87-104.04,214.61-63.31,44.69-153.85,68.32-261.86,68.32s-198.55-23.62-261.86-68.32c-69.04-48.74-104.04-120.95-104.04-214.61,0-49.41,9.67-97.32,28.74-142.42,18.43-43.57,44.81-82.7,78.42-116.31,33.61-33.61,72.74-60,116.31-78.42,45.09-19.07,93.01-28.74,142.42-28.74M401.77,0C186.43,0,11.87,174.56,11.87,389.9s174.56,306.93,389.9,306.93,389.9-91.59,389.9-306.93S617.1,0,401.77,0h0Z"/>
    </g>
    <g>
      <path class="cls-1" d="M312.42,335.87c-24.05,0-46.07-9.63-62.02-27.11-17.16-18.81-26.23-44.91-26.23-75.48s9.07-56.67,26.23-75.48c15.95-17.48,37.97-27.11,62.02-27.11s46.07,9.63,62.02,27.11c17.16,18.81,26.23,44.91,26.23,75.48s-9.07,56.67-26.23,75.48c-15.95,17.48-37.97,27.11-62.02,27.11Z"/>
      <path class="cls-2" d="M312.42,142.69c20.63,0,39.51,8.24,53.15,23.2,15.11,16.56,23.09,39.87,23.09,67.39s-7.99,50.83-23.09,67.39c-13.64,14.96-32.52,23.2-53.15,23.2s-39.51-8.24-53.15-23.2c-15.11-16.57-23.09-39.87-23.09-67.39s7.99-50.83,23.09-67.39c13.64-14.96,32.52-23.2,53.15-23.2M312.42,118.69c-55.36,0-100.25,44.53-100.25,114.59s44.88,114.59,100.25,114.59,100.25-44.53,100.25-114.59-44.88-114.59-100.25-114.59h0Z"/>
    </g>
    <path class="cls-2" d="M270.24,181.47c-10.43,12.43-16.87,30.17-16.87,51.81,0,43.87,26.44,71.76,59.05,71.76,11.22,0,21.7-3.31,30.63-9.43,2.23-1.53,2.79-4.15,1.34-6.21l-17.21-24.39c-3.06-4.34,2.88-9.2,8.2-6.7l21.72,10.23c3.35,1.58,7.59.19,8.74-2.82,3.61-9.43,5.64-20.32,5.64-32.44,0-17.72-4.32-32.83-11.61-44.55-29.87-4.47-59.75-8.23-89.62-7.26Z"/>
    <path class="cls-5" d="M401.87,234.63c-13.53-25.25-50.55-39.91-76.41-48.29-26.34-8.54-53.96-12.61-81.58-14.59"/>
    <ellipse class="cls-2" cx="401.77" cy="759.86" rx="234.9" ry="35.72"/>
    <path class="cls-3" d="M743.07,345.4l22.09,26.12c22.68,26.81,42.2,56.14,58.17,87.42l8.7,17.03c8.63,16.9,7.78,37.31-2.89,53-5.95,8.75-14.61,15.77-25.32,19.65h0c-27.05,9.8-56.92-4.19-66.72-31.24l-5.88-16.65c-12.31-34.86-28.81-68.11-49.12-99.01l-18.19-27.66"/>
    <path class="cls-3" d="M199.82,334.78l-18.79,28.59c-19.28,29.35-41.88,56.38-67.35,80.56l-13.87,13.17c-13.76,13.07-33.57,18.04-51.65,12.25-10.08-3.22-19.27-9.54-26.02-18.71h0c-17.06-23.16-12.12-55.78,11.04-72.84l14.3-10.36c29.94-21.69,57.15-46.93,81.02-75.17"/>
    <path class="cls-5" d="M364.71,391.28c11.08,7.02,22.98,8.27,35.25,6.62,12.61-1.69,24.14-5.35,33.11-15.5"/>
    <path class="cls-5" d="M443.65,354.01s-10.08,11.08-3.84,23.63c6.24,12.54,23.17,12.37,23.17,12.37"/>
    <g>
      <path class="cls-1" d="M490.93,335.87c-24.05,0-46.07-9.63-62.02-27.11-17.16-18.81-26.23-44.91-26.23-75.48s9.07-56.67,26.23-75.48c15.95-17.48,37.97-27.11,62.02-27.11s46.07,9.63,62.02,27.11c17.16,18.81,26.23,44.91,26.23,75.48s-9.07,56.67-26.23,75.48c-15.95,17.48-37.97,27.11-62.02,27.11Z"/>
      <path class="cls-2" d="M490.93,142.69c20.63,0,39.51,8.24,53.15,23.2,15.11,16.56,23.09,39.87,23.09,67.39s-7.99,50.83-23.09,67.39c-13.64,14.96-32.52,23.2-53.15,23.2s-39.51-8.24-53.15-23.2c-15.11-16.57-23.09-39.87-23.09-67.39s7.99-50.83,23.09-67.39c13.64-14.96,32.52-23.2,53.15-23.2M490.93,118.69c-55.36,0-100.25,44.53-100.25,114.59s44.88,114.59,100.25,114.59,100.25-44.53,100.25-114.59-44.88-114.59-100.25-114.59h0Z"/>
    </g>
    <path class="cls-2" d="M435.4,207.13c-2.28,7.88-3.52,16.64-3.52,26.15,0,43.87,26.44,71.76,59.05,71.76,11.22,0,21.7-3.31,30.63-9.43,2.23-1.53,2.79-4.15,1.34-6.21l-17.21-24.39c-3.07-4.34,2.88-9.2,8.19-6.7l21.72,10.23c3.35,1.58,7.59.19,8.74-2.82,3.61-9.43,5.64-20.32,5.64-32.44,0-21.92-6.6-39.85-17.27-52.3-33.67,2.73-66.86,11.75-97.31,26.15Z"/>
    <path class="cls-5" d="M406.43,231.86c13.95-24.71,50.46-37.96,75.9-45.35,25.92-7.53,52.93-10.56,79.89-11.49"/>
    <g>
      <path class="cls-4" d="M140.38,413.39c-40.27,0-73.04-32.76-73.04-73.04s32.76-73.04,73.04-73.04,73.04,32.76,73.04,73.04-32.76,73.04-73.04,73.04Z"/>
      <path class="cls-2" d="M140.38,279.32c33.66,0,61.04,27.38,61.04,61.04s-27.38,61.04-61.04,61.04-61.04-27.38-61.04-61.04,27.38-61.04,61.04-61.04M140.38,255.32c-46.96,0-85.04,38.07-85.04,85.04s38.07,85.04,85.04,85.04,85.04-38.07,85.04-85.04-38.07-85.04-85.04-85.04h0Z"/>
    </g>
    <g>
      <line class="cls-5" x1="434.5" y1="99.95" x2="499.62" y2="71.7"/>
      <line class="cls-5" x1="369.04" y1="99.95" x2="303.92" y2="71.7"/>
    </g>
  </g>
</svg>