<?xml version="1.0" encoding="UTF-8"?>
<svg id="_레이어_2" data-name="레이어 2" xmlns="http://www.w3.org/2000/svg" viewBox="0 0 795.21 795.58">
  <defs>
    <style>
      .cls-1 {
        fill: #f9f9fa;
      }

      .cls-2 {
        fill: #fff;
        stroke-linejoin: round;
      }

      .cls-2, .cls-3, .cls-4 {
        stroke: #5d05ce;
        stroke-linecap: round;
        stroke-width: 24px;
      }

      .cls-5 {
        fill: #5d05ce;
      }

      .cls-3, .cls-6 {
        fill: #d5ff72;
      }

      .cls-3, .cls-4 {
        stroke-miterlimit: 10;
      }

      .cls-4 {
        fill: none;
      }
    </style>
  </defs>
  <g id="_레이어_1-2" data-name="레이어 1">
    <ellipse class="cls-5" cx="397.6" cy="759.86" rx="234.9" ry="35.72"/>
    <g>
      <path class="cls-6" d="M397.6,684.83c-110.5,0-203.44-24.38-268.78-70.52-34.71-24.51-61.55-55.14-79.78-91.04-19.47-38.35-29.34-83.23-29.34-133.37s9.99-100.51,29.69-147.09c19.03-45,46.28-85.41,80.99-120.12s75.12-61.96,120.12-80.99c46.58-19.7,96.07-29.69,147.09-29.69s100.51,9.99,147.09,29.69c45,19.03,85.41,46.28,120.12,80.99,34.71,34.71,61.96,75.12,80.99,120.12,19.7,46.58,29.69,96.07,29.69,147.09s-9.87,95.02-29.34,133.37c-18.22,35.9-45.07,66.53-79.78,91.04-65.34,46.13-158.28,70.52-268.78,70.52Z"/>
      <path class="cls-5" d="M397.6,24c49.41,0,97.32,9.67,142.42,28.74,43.57,18.43,82.7,44.81,116.31,78.42,33.61,33.61,60,72.74,78.42,116.31,19.07,45.09,28.74,93.01,28.74,142.42,0,93.66-35,165.87-104.04,214.61-63.31,44.69-153.85,68.32-261.86,68.32s-198.55-23.62-261.86-68.32c-69.04-48.74-104.04-120.95-104.04-214.61,0-49.41,9.67-97.32,28.74-142.42,18.43-43.57,44.81-82.7,78.42-116.31,33.61-33.61,72.74-60,116.31-78.42,45.09-19.07,93.01-28.74,142.42-28.74M397.6,0C182.27,0,7.71,174.56,7.71,389.9s174.56,306.93,389.9,306.93,389.9-91.59,389.9-306.93S612.94,0,397.6,0h0Z"/>
    </g>
    <path class="cls-3" d="M743.62,346.66l11.88,32.08c12.19,32.93,20.55,67.16,24.92,102l2.38,18.97c2.36,18.83-5.39,37.73-20.77,48.85-8.57,6.2-19.11,9.85-30.5,9.85h0c-28.77,0-52.09-23.32-52.09-52.09l.14-17.65c.3-36.97-3.89-73.85-12.46-109.82l-7.68-32.2"/>
    <path class="cls-3" d="M51.59,346.66l-11.88,32.08c-12.19,32.93-20.55,67.16-24.92,102l-2.38,18.97c-2.36,18.83,5.39,37.73,20.77,48.85,8.57,6.2,19.11,9.85,30.5,9.85h0c28.77,0,52.09-23.32,52.09-52.09l-.14-17.65c-.3-36.97,3.89-73.85,12.46-109.82l7.68-32.2"/>
    <g>
      <g>
        <path class="cls-1" d="M486.76,335.87c-24.05,0-46.07-9.63-62.02-27.11-17.16-18.81-26.23-44.91-26.23-75.48s9.07-56.67,26.23-75.48c15.94-17.48,37.97-27.11,62.02-27.11s46.07,9.63,62.02,27.11c17.16,18.81,26.23,44.91,26.23,75.48s-9.07,56.67-26.23,75.48c-15.94,17.48-37.97,27.11-62.02,27.11Z"/>
        <path class="cls-5" d="M486.76,142.69c20.63,0,39.51,8.24,53.15,23.2,15.11,16.56,23.09,39.87,23.09,67.39s-7.99,50.83-23.09,67.39c-13.64,14.96-32.52,23.2-53.15,23.2s-39.51-8.24-53.15-23.2c-15.11-16.56-23.09-39.87-23.09-67.39s7.99-50.83,23.09-67.39c13.64-14.96,32.52-23.2,53.15-23.2M486.76,118.69c-55.36,0-100.25,44.53-100.25,114.59s44.88,114.59,100.25,114.59,100.25-44.53,100.25-114.59-44.88-114.59-100.25-114.59h0Z"/>
      </g>
      <path class="cls-5" d="M509.72,258.3l21.72,10.23c3.35,1.58,7.59.19,8.74-2.82,3.61-9.43,5.64-20.32,5.64-32.44,0-43.87-26.44-71.76-59.05-71.76s-59.05,27.89-59.05,71.76,26.44,71.76,59.05,71.76c11.22,0,21.7-3.31,30.63-9.43,2.23-1.53,2.79-4.15,1.34-6.21l-17.21-24.39c-3.07-4.34,2.88-9.2,8.2-6.7Z"/>
    </g>
    <g>
      <g>
        <path class="cls-1" d="M308.44,335.87c-24.05,0-46.07-9.63-62.02-27.11-17.16-18.81-26.23-44.91-26.23-75.48s9.07-56.67,26.23-75.48c15.94-17.48,37.97-27.11,62.02-27.11s46.07,9.63,62.02,27.11c17.16,18.81,26.23,44.91,26.23,75.48s-9.07,56.67-26.23,75.48c-15.94,17.48-37.97,27.11-62.02,27.11Z"/>
        <path class="cls-5" d="M308.44,142.69c20.63,0,39.51,8.24,53.15,23.2,15.11,16.56,23.09,39.87,23.09,67.39s-7.99,50.83-23.09,67.39c-13.64,14.96-32.52,23.2-53.15,23.2s-39.51-8.24-53.15-23.2c-15.11-16.56-23.09-39.87-23.09-67.39s7.99-50.83,23.09-67.39c13.64-14.96,32.52-23.2,53.15-23.2M308.44,118.69c-55.36,0-100.25,44.53-100.25,114.59s44.88,114.59,100.25,114.59,100.25-44.53,100.25-114.59-44.88-114.59-100.25-114.59h0Z"/>
      </g>
      <path class="cls-5" d="M331.4,258.3l21.72,10.23c3.35,1.58,7.59.19,8.74-2.82,3.61-9.43,5.64-20.32,5.64-32.44,0-43.87-26.44-71.76-59.05-71.76s-59.05,27.89-59.05,71.76,26.44,71.76,59.05,71.76c11.22,0,21.7-3.31,30.63-9.43,2.23-1.53,2.79-4.15,1.34-6.21l-17.21-24.39c-3.07-4.34,2.88-9.2,8.2-6.7Z"/>
    </g>
    <g>
      <path class="cls-4" d="M519.37,89.55c-10.05-8.44-21.67-11.26-34.06-11.26s-24.64,2.09-34.88,10.96"/>
      <path class="cls-4" d="M344.77,89.55c-10.05-8.44-21.67-11.26-34.06-11.26s-24.64,2.09-34.88,10.96"/>
    </g>
    <path class="cls-2" d="M441.17,378.26c0,18.86-23.63,37.68-44.08,37.68s-43.05-23.54-43.05-38.06l24.18,3.65c13.51,2.04,27.25,2.05,40.76.04l22.2-3.31Z"/>
  </g>
</svg>