<svg xmlns="http://www.w3.org/2000/svg" viewBox="0 0 24 24" fill="none">
  <path d="M4.5 6.9c0-1.4 1.1-2.5 2.5-2.5h10c1.4 0 2.5 1.1 2.5 2.5v10.2c0 1.4-1.1 2.5-2.5 2.5H7c-1.4 0-2.5-1.1-2.5-2.5V6.9Z" fill="#F7F0FF" stroke="#5D05CE" stroke-width="1.45"/>
  <path d="M8 15.5c1.4-3.8 4.3-5.5 8-5.3" stroke="#5D05CE" stroke-width="1.45" stroke-linecap="round"/>
  <path d="M7.8 15.5h8.4" stroke="#5D05CE" stroke-width="1.45" stroke-linecap="round"/>
  <path d="m16.7 6.9.6 1.3 1.3.6-1.3.6-.6 1.3-.6-1.3-1.3-.6 1.3-.6.6-1.3Z" fill="#D5FF72" stroke="#5D05CE" stroke-width=".9" stroke-linejoin="round"/>
  <circle cx="9" cy="9.4" r="1.15" fill="#D5FF72" stroke="#5D05CE" stroke-width=".95"/>
</svg>
