<svg xmlns="http://www.w3.org/2000/svg" viewBox="0 0 24 24" fill="none">
  <path d="M5 8c0-1.4 1.1-2.5 2.5-2.5h9c1.4 0 2.5 1.1 2.5 2.5v1.8c-1.1.3-1.9 1.2-1.9 2.2s.8 1.9 1.9 2.2V16c0 1.4-1.1 2.5-2.5 2.5h-9C6.1 18.5 5 17.4 5 16v-1.8c1.1-.3 1.9-1.2 1.9-2.2S6.1 10.1 5 9.8V8Z" fill="#F7F0FF" stroke="#5D05CE" stroke-width="1.45" stroke-linejoin="round"/>
  <path d="M9.1 12.1h5.8M9.1 9.4h4.1M9.1 14.8h3.4" stroke="#5D05CE" stroke-width="1.25" stroke-linecap="round"/>
  <path d="m15.8 13.4 1 1.1 2-2.6" stroke="#D5FF72" stroke-width="2" stroke-linecap="round" stroke-linejoin="round"/>
</svg>
