<svg xmlns="http://www.w3.org/2000/svg" viewBox="0 0 24 24" fill="none">
  <path d="M4.5 9.1c0-2.1 1.7-3.8 3.8-3.8h7.4c2.1 0 3.8 1.7 3.8 3.8v6.7c0 1.6-1.3 2.9-2.9 2.9H7.4c-1.6 0-2.9-1.3-2.9-2.9V9.1Z" fill="#F7F0FF" stroke="#5D05CE" stroke-width="1.45"/>
  <path d="M8 18.7V8.9c0-.9.7-1.6 1.6-1.6h4.8c.9 0 1.6.7 1.6 1.6v9.8" fill="#FFFFFF" stroke="#5D05CE" stroke-width="1.3"/>
  <path d="M10.2 11.3h3.6M10.2 14.1h2.5" stroke="#5D05CE" stroke-width="1.25" stroke-linecap="round"/>
  <path d="M17.4 6.8c1.5.2 2.6 1.5 2.6 3.1v5.3" stroke="#D5FF72" stroke-width="2.1" stroke-linecap="round"/>
  <circle cx="14.1" cy="13.8" r=".75" fill="#D5FF72" stroke="#5D05CE" stroke-width=".85"/>
</svg>
