<?xml version="1.0" encoding="UTF-8"?>
<svg id="_레이어_2" data-name="레이어 2" xmlns="http://www.w3.org/2000/svg" viewBox="0 0 383.65 432.03">
  <defs>
    <style>
      .cls-1 {
        fill: #5d05ce;
      }
    </style>
  </defs>
  <g id="_레이어_1-2" data-name="레이어 1">
    <g>
      <g>
        <path class="cls-1" d="M357.79,22.84c-7.73-7.55-16.54-13.25-26.43-17.08-9.89-3.84-19.99-5.75-30.3-5.75s-27.65,1.98-37.66,5.93c-10.01,3.96-18.97,9.92-26.88,17.89-7.91,7.97-14.27,18.01-19.06,30.12-4.8,12.11-7.19,26.32-7.19,42.62s2.34,31.32,7.01,43.97c4.68,12.65,10.88,23.2,18.61,31.65,7.73,8.45,16.54,14.84,26.43,19.15,9.89,4.32,26.99,6.47,37.3,6.47s20.65-2.25,30.66-6.74c10.01-4.5,18.97-11.21,26.88-20.14,7.91-8.93,14.3-20.11,19.15-33.54,4.86-13.42,7.28-29.07,7.28-46.93,0-14.98-2.37-28.11-7.1-39.38-4.74-11.27-10.97-20.68-18.7-28.23ZM325.15,116.44c-1.68,6.05-3.87,11.12-6.56,15.2-10.29,15.56-35.75,16.31-46.02.54-2.58-3.96-4.65-8.9-6.2-14.83-1.56-5.93-2.34-12.86-2.34-20.77,0-6.95.84-13.04,2.52-18.25,3.36-10.45,9.88-19.47,20.81-22.77,10.83-3.28,24.91.01,31.77,9.11,2.58,3.42,4.64,7.67,6.2,12.77,1.56,5.1,2.34,11.12,2.34,18.07,0,7.91-.84,14.9-2.52,20.95Z"/>
        <path class="cls-1" d="M172.64,22.84c-7.73-7.55-16.54-13.25-26.43-17.08-9.89-3.84-19.99-5.75-30.3-5.75s-27.65,1.98-37.66,5.93c-10.01,3.96-18.97,9.92-26.88,17.89-7.91,7.97-14.27,18.01-19.06,30.12-4.8,12.11-7.19,26.32-7.19,42.62s2.34,31.32,7.01,43.97c4.68,12.65,10.88,23.2,18.61,31.65,7.73,8.45,16.54,14.84,26.43,19.15,9.89,4.32,26.99,6.47,37.3,6.47s20.65-2.25,30.66-6.74c10.01-4.5,18.97-11.21,26.88-20.14,7.91-8.93,14.3-20.11,19.15-33.54,4.86-13.42,7.28-29.07,7.28-46.93,0-14.98-2.37-28.11-7.1-39.38-4.74-11.27-10.97-20.68-18.7-28.23ZM140,116.44c-1.68,6.05-3.87,11.12-6.56,15.2-10.29,15.56-35.75,16.31-46.02.54-2.58-3.96-4.65-8.9-6.2-14.83-1.56-5.93-2.34-12.86-2.34-20.77,0-6.95.84-13.04,2.52-18.25,3.36-10.45,9.88-19.47,20.81-22.77,10.83-3.28,24.91.01,31.77,9.11,2.58,3.42,4.64,7.67,6.2,12.77,1.56,5.1,2.34,11.12,2.34,18.07,0,7.91-.84,14.9-2.52,20.95Z"/>
      </g>
      <g>
        <path class="cls-1" d="M216.91,235.66c-7.27-.48-19.03-.92-29.22-.92-9.19,0-18.4.48-23.72.81-1.88.12-3.42,1.54-3.68,3.41-1.25,8.89-2.7,19.53-3.36,26.56-.9,9.71-1.8,16.45-2.7,26.22-.9,9.77-1.86,19.45-2.88,29.04-.82,7.7-1.85,15.29-3.09,22.75-.18,1.11-1.76,1.12-1.97.02-2.25-11.93-4.7-23.75-7.35-35.45-2.8-12.35-5.63-24.73-8.48-37.14-.38-1.65-1.75-2.88-3.42-3.07-3.08-.36-7.91-.64-16.87-.78-8.36-.14-14.12.39-17.54.86-1.56.22-2.84,1.34-3.27,2.86-3.09,10.88-6.13,21.69-9.12,32.42-2.78,9.96-5.35,20.03-7.71,30.19-.26,1.11-1.87.98-1.96-.16-1.2-15.29-2.56-30.49-4.08-45.59-.43-4.24-.84-8.48-1.23-12.72-.72-7.74-1.38-12.49-1.99-20.24-.05-.68-.1-1.36-.15-2.04-.25-3.21-.49-6.42-.72-9.63-.08-1.14-.07-1.82-.23-4.61-.09-1.68-1.38-3.05-3.05-3.25-8.9-1.04-17.14-.8-31.13-.46-10.58.26-19.43,1.12-24.95,1.8-1.89.23-3.22,1.94-3.01,3.83.46,4.01,1.01,8.33,1.52,12.31.47,3.66.9,7.03,1.19,9.6,1.08,9.47,2.31,16.72,3.69,27.75,1.38,11.03,2.88,22.6,4.5,34.71,1.62,12.11,3.24,24.22,4.86,36.32,1.62,12.11,3.21,23.92,4.77,35.43,1.36,10.07,2.54,21.81,3.54,31.17.24,2.22,2.06,3.93,4.3,4.02,3.67.14,7.8.23,12.39.27,6.29.06,12.74.09,19.33.09,5.63,0,11-.06,16.09-.18,3.77-.09,7.16-.24,10.18-.46,1.79-.13,3.28-1.43,3.63-3.19,2.24-11.3,4.68-24.59,7.33-35.22,2.55-10.24,5.05-20.5,7.5-30.79.24-1.02,1.7-1.03,1.95,0,2.58,10.54,4.86,21.11,6.83,31.7,2.05,11.02,4.58,22.86,7.6,33.96.45,1.65,1.91,2.83,3.62,2.95,12.49.87,21.39.9,32.21.62,10.74-.28,20.7.17,32.05-2.03,1.69-.33,2.98-1.69,3.2-3.4,3.99-31.13,8.61-63.06,13.85-93.96,4.96-29.23,10.46-61.49,14.49-91.84.3-2.29-1.39-4.36-3.69-4.51Z"/>
        <path class="cls-1" d="M383.6,422.3c-.4-30.81.26-60.98-.04-91.61v-.2c.24-43.92.29-96.22-61.69-96.55-23.66.14-60.53,5.3-75.37,25.18-.76,1.02-1.12,2.29-.99,3.56.88,8.72,3.5,23.99,8.26,30.67,1.03,1.44,2.93,2,4.58,1.37.41-.16.8-.33,1.15-.5,4.99-2.45,10.34-4.77,15.76-6.67,12.32-4.32,25.78-6.27,38.42-2.89,5.78,1.78,10.63,5.29,12.67,11.39,1.35,4.29,2.05,10.01,1.98,14.44-.1,2.68-2.41,2.35-4.34,2.25-32.76-1.88-73.26,4.31-92.54,34.33-14.03,22.71-9.34,59.72,15.69,72.85,19.26,10.69,43.77,10.33,64.15,3.16,4.29-1.54,8.54-3.46,12.79-5.77,1.45-.8,3.73-2.05,3.98.56.91,4.06-1.44,11.68,4.03,12.9,14.89,1.93,29.3.18,44.33-.72,4.76,0,7.68-3.22,7.22-7.74ZM328.07,370.83s-.01.19-.01.19c-.05,1.95,0,4.6-1.06,6.33s-3.68,2.71-5.55,3.46c-10.84,4.33-26.79,7.52-38.08,3.12-7.46-2.91-11.99-10.39-9.59-18.39,2.44-8.13,9.69-13.01,16.75-15.58,10.28-3.74,21.16-5.36,31.99-5.98,2.5-.14,4.81-.18,5.27,2.05.35,1.29.26,2.31.3,3.6.05,6.97.34,14.32-.02,21.19Z"/>
      </g>
    </g>
  </g>
</svg>